<?xml version="1.0" encoding="UTF-8"?>
<svg version="1.1" xmlns="http://www.w3.org/2000/svg" width="1875" height="1835">
<path d="M0 0 C3.10233331 0.58687103 4.86896984 1.45625952 7.21484375 3.5546875 C8.11021851 4.3446814 8.11021851 4.3446814 9.02368164 5.15063477 C9.6552417 5.71967529 10.28680176 6.28871582 10.9375 6.875 C12.28845232 8.06970076 13.64002526 9.26370005 14.9921875 10.45703125 C15.66733398 11.05596191 16.34248047 11.65489258 17.03808594 12.27197266 C19.84471013 14.74400925 22.69899977 17.15682298 25.5625 19.5625 C30.10656063 23.39010745 34.6220874 27.24909073 39.125 31.125 C43.18620876 34.61823856 47.27518971 38.06448707 51.4375 41.4375 C57.78276881 46.59186792 63.92509448 51.97362765 70.09033203 57.34033203 C77.13272391 63.4607846 84.19002801 69.56030337 91.4375 75.4375 C96.48933717 79.53979949 101.4030598 83.78701978 106.31005859 88.06005859 C110.89096638 92.04703759 115.50741507 95.98811681 120.15136719 99.90136719 C124.16384184 103.28481948 128.14710388 106.70100184 132.125 110.125 C136.18620876 113.61823856 140.27518971 117.06448707 144.4375 120.4375 C150.78276881 125.59186792 156.92509448 130.97362765 163.09033203 136.34033203 C170.13272391 142.4607846 177.19002801 148.56030337 184.4375 154.4375 C190.78276881 159.59186792 196.92509448 164.97362765 203.09033203 170.34033203 C210.13272391 176.4607846 217.19002801 182.56030337 224.4375 188.4375 C229.48933717 192.53979949 234.4030598 196.78701978 239.31005859 201.06005859 C243.89096638 205.04703759 248.50741507 208.98811681 253.15136719 212.90136719 C257.16384184 216.28481948 261.14710388 219.70100184 265.125 223.125 C269.18620876 226.61823856 273.27518971 230.06448707 277.4375 233.4375 C283.78276881 238.59186792 289.92509448 243.97362765 296.09033203 249.34033203 C299.13522148 251.98660645 302.19008689 254.62112008 305.25 257.25 C305.82242432 257.74282471 306.39484863 258.23564941 306.98461914 258.7434082 C309.7062444 261.07639708 312.44637877 263.37534592 315.25 265.609375 C316.24 266.39828125 317.23 267.1871875 318.25 268 C319.12140625 268.680625 319.9928125 269.36125 320.890625 270.0625 C322.95751298 271.96097488 323.96323113 273.41959747 325 276 C324.07380859 276.99966797 324.07380859 276.99966797 323.12890625 278.01953125 C318.03255869 283.56578468 313.13888924 289.20216955 308.40234375 295.0625 C305.71051461 298.35397238 302.95926921 301.58835167 300.1875 304.8125 C299.68323486 305.39918457 299.17896973 305.98586914 298.65942383 306.59033203 C296.58728444 308.99869793 294.51283065 311.40506514 292.43847656 313.81152344 C287.41838502 319.63835913 282.40626351 325.46234648 277.5625 331.4375 C272.40813208 337.78276881 267.02637235 343.92509448 261.65966797 350.09033203 C255.5392154 357.13272391 249.43969663 364.19002801 243.5625 371.4375 C238.40813208 377.78276881 233.02637235 383.92509448 227.65966797 390.09033203 C221.5392154 397.13272391 215.43969663 404.19002801 209.5625 411.4375 C205.46020051 416.48933717 201.21298022 421.4030598 196.93994141 426.31005859 C192.95296241 430.89096638 189.01188319 435.50741507 185.09863281 440.15136719 C181.71518052 444.16384184 178.29899816 448.14710388 174.875 452.125 C171.38176144 456.18620876 167.93551293 460.27518971 164.5625 464.4375 C159.40813208 470.78276881 154.02637235 476.92509448 148.65966797 483.09033203 C142.5392154 490.13272391 136.43969663 497.19002801 130.5625 504.4375 C125.40813208 510.78276881 120.02637235 516.92509448 114.65966797 523.09033203 C108.5392154 530.13272391 102.43969663 537.19002801 96.5625 544.4375 C91.40813208 550.78276881 86.02637235 556.92509448 80.65966797 563.09033203 C73.66829802 571.13482978 66.76492215 579.23675192 60.046875 587.51171875 C57.11197816 591.07952273 54.07328331 594.55120297 51 598 C47.11649732 597.43384016 45.24229686 595.66155353 42.4375 593 C38.97890451 589.79348873 35.48470189 586.7096851 31.8125 583.75 C27.29059061 580.09153866 22.88221101 576.32307284 18.5 572.5 C14.21793708 568.76584832 9.91668165 565.07540896 5.5 561.5 C-0.82873745 556.37137869 -6.94705834 551.00725329 -13.09033203 545.65966797 C-20.13272391 539.5392154 -27.19002801 533.43969663 -34.4375 527.5625 C-39.48933717 523.46020051 -44.4030598 519.21298022 -49.31005859 514.93994141 C-53.89096638 510.95296241 -58.50741507 507.01188319 -63.15136719 503.09863281 C-67.16384184 499.71518052 -71.14710388 496.29899816 -75.125 492.875 C-79.18620876 489.38176144 -83.27518971 485.93551293 -87.4375 482.5625 C-93.78276881 477.40813208 -99.92509448 472.02637235 -106.09033203 466.65966797 C-113.13272391 460.5392154 -120.19002801 454.43969663 -127.4375 448.5625 C-133.78276881 443.40813208 -139.92509448 438.02637235 -146.09033203 432.65966797 C-153.13272391 426.5392154 -160.19002801 420.43969663 -167.4375 414.5625 C-173.78276881 409.40813208 -179.92509448 404.02637235 -186.09033203 398.65966797 C-193.13272391 392.5392154 -200.19002801 386.43969663 -207.4375 380.5625 C-212.48933717 376.46020051 -217.4030598 372.21298022 -222.31005859 367.93994141 C-226.89096638 363.95296241 -231.50741507 360.01188319 -236.15136719 356.09863281 C-240.16384178 352.71518057 -244.14711063 349.29900604 -248.125 345.875 C-253.1902228 341.51802918 -258.32433644 337.25826094 -263.51171875 333.046875 C-267.07952273 330.11197816 -270.55120297 327.07328331 -274 324 C-272.73063053 321.26637247 -271.37591334 319.07719578 -269.3828125 316.8203125 C-268.86428711 316.22831055 -268.34576172 315.63630859 -267.81152344 315.02636719 C-267.2549707 314.39891602 -266.69841797 313.77146484 -266.125 313.125 C-264.94497515 311.7789415 -263.76529549 310.43258031 -262.5859375 309.0859375 C-261.98749023 308.40499023 -261.38904297 307.72404297 -260.77246094 307.02246094 C-258.07853609 303.94856653 -255.41078271 300.85259258 -252.75 297.75 C-252.00182007 296.87807007 -252.00182007 296.87807007 -251.23852539 295.98852539 C-248.29850608 292.55080733 -245.41182929 289.07615379 -242.5625 285.5625 C-238.46020051 280.51066283 -234.21298022 275.5969402 -229.93994141 270.68994141 C-225.95296241 266.10903362 -222.01188319 261.49258493 -218.09863281 256.84863281 C-214.71518052 252.83615816 -211.29899816 248.85289612 -207.875 244.875 C-204.38176144 240.81379124 -200.93551293 236.72481029 -197.5625 232.5625 C-192.40813208 226.21723119 -187.02637235 220.07490552 -181.65966797 213.90966797 C-175.5392154 206.86727609 -169.43969663 199.80997199 -163.5625 192.5625 C-158.40813208 186.21723119 -153.02637235 180.07490552 -147.65966797 173.90966797 C-141.5392154 166.86727609 -135.43969663 159.80997199 -129.5625 152.5625 C-125.46020051 147.51066283 -121.21298022 142.5969402 -116.93994141 137.68994141 C-112.95296241 133.10903362 -109.01188319 128.49258493 -105.09863281 123.84863281 C-101.71518052 119.83615816 -98.29899816 115.85289612 -94.875 111.875 C-91.38176144 107.81379124 -87.93551293 103.72481029 -84.5625 99.5625 C-79.40813208 93.21723119 -74.02637235 87.07490552 -68.65966797 80.90966797 C-62.5392154 73.86727609 -56.43969663 66.80997199 -50.5625 59.5625 C-45.40813208 53.21723119 -40.02637235 47.07490552 -34.65966797 40.90966797 C-27.78175406 32.99571643 -20.98692741 25.02809288 -14.37890625 16.88671875 C-9.67693778 11.18104601 -4.82955215 5.59770426 0 0 Z " fill="#F6921E" transform="translate(1469,80)"/>
<path d="M0 0 C137.61 0 275.22 0 417 0 C417 137.94 417 275.88 417 418 C279.39 418 141.78 418 0 418 C0 280.06 0 142.12 0 0 Z " fill="#F6921E" transform="translate(1103,794)"/>
<path d="M0 0 C137.61 0 275.22 0 417 0 C417 137.94 417 275.88 417 418 C279.39 418 141.78 418 0 418 C0 280.06 0 142.12 0 0 Z " fill="#2B357C" transform="translate(607,794)"/>
<path d="M0 0 C137.61 0 275.22 0 417 0 C417 137.94 417 275.88 417 418 C279.39 418 141.78 418 0 418 C0 280.06 0 142.12 0 0 Z " fill="#2B357C" transform="translate(112,794)"/>
<path d="M0 0 C137.61 0 275.22 0 417 0 C417 137.94 417 275.88 417 418 C279.39 418 141.78 418 0 418 C0 280.06 0 142.12 0 0 Z " fill="#2B357C" transform="translate(607,299)"/>
<path d="M0 0 C137.61 0 275.22 0 417 0 C417 137.94 417 275.88 417 418 C279.39 418 141.78 418 0 418 C0 280.06 0 142.12 0 0 Z " fill="#2B357C" transform="translate(112,299)"/>
<path d="M0 0 C137.61 0 275.22 0 417 0 C417 137.61 417 275.22 417 417 C279.39 417 141.78 417 0 417 C0 279.39 0 141.78 0 0 Z " fill="#2B357C" transform="translate(1104,1290)"/>
<path d="M0 0 C137.61 0 275.22 0 417 0 C417 137.61 417 275.22 417 417 C279.39 417 141.78 417 0 417 C0 279.39 0 141.78 0 0 Z " fill="#2B357C" transform="translate(608,1290)"/>
<path d="M0 0 C137.61 0 275.22 0 417 0 C417 137.61 417 275.22 417 417 C279.39 417 141.78 417 0 417 C0 279.39 0 141.78 0 0 Z " fill="#2B357C" transform="translate(113,1290)"/>
</svg>
